<svg width="200" height="200" viewBox="0 0 200 200" xmlns="http://www.w3.org/2000/svg">
  <!-- Outer circle -->
  <circle cx="100" cy="100" r="95" fill="none" stroke="currentColor" stroke-width="2"/>
  
  <!-- Inner white circle background -->
  <circle cx="100" cy="100" r="75" fill="white"/>
  
  <!-- Outer ring text path -->
  <path id="topCircle" d="M 35 100 A 65 65 0 1 1 165 100 A 65 65 0 1 1 35 100" fill="none"/>
  <text font-family="Arial, sans-serif" font-size="7" font-weight="bold" fill="black">
    <textPath href="#topCircle" startOffset="0%">• HUSTLE • INTEGRITY • CARING • HUSTLE • INTEGRITY • CARING</textPath>
  </text>
  
  <!-- MOSES text -->
  <text x="100" y="70" text-anchor="middle" font-family="Arial, sans-serif" font-size="32" font-weight="bold" fill="black">MOSES</text>
  
  <!-- AutoMall oval background -->
  <ellipse cx="100" cy="90" rx="52" ry="15" fill="black"/>
  <text x="100" y="96" text-anchor="middle" font-family="Arial, sans-serif" font-size="16" font-weight="bold" fill="white">AutoMall</text>
  
  <!-- HUNTINGTON text -->
  <text x="100" y="115" text-anchor="middle" font-family="Arial, sans-serif" font-size="12" font-weight="bold" fill="black" letter-spacing="2px">HUNTINGTON</text>
  
  <!-- Three stars -->
  <g fill="black">
    <polygon points="100,125 101.5,129 105.5,129 102.5,131.5 103.5,135.5 100,133 96.5,135.5 97.5,131.5 94.5,129 98.5,129" transform="translate(-12, 0)"/>
    <polygon points="100,125 101.5,129 105.5,129 102.5,131.5 103.5,135.5 100,133 96.5,135.5 97.5,131.5 94.5,129 98.5,129"/>
    <polygon points="100,125 101.5,129 105.5,129 102.5,131.5 103.5,135.5 100,133 96.5,135.5 97.5,131.5 94.5,129 98.5,129" transform="translate(12, 0)"/>
  </g>
</svg>
